<?xml version="1.0" encoding="utf-8"?>
<!-- Generator: Adobe Illustrator 23.1.1, SVG Export Plug-In . SVG Version: 6.00 Build 0)  -->
<svg version="1.1" id="Layer_1" xmlns="http://www.w3.org/2000/svg" xmlns:xlink="http://www.w3.org/1999/xlink" x="0px" y="0px"
	 viewBox="0 0 560 288" style="enable-background:new 0 0 560 288;" xml:space="preserve">
<style type="text/css">
	.st0{fill:none;stroke:#000000;stroke-width:2;stroke-miterlimit:10;}
	.st1{fill:none;}
	.st2{font-family:'ArchivoBlack-Regular';}
	.st3{font-size:20px;}
</style>
<line class="st0" x1="192.12" y1="240.84" x2="342.61" y2="240.84"/>
<path class="st0" d="M311.92,240.84h-89.1c-1.42,0-2.57-1.15-2.57-2.57V88.96c0-1.42,1.15-2.57,2.57-2.57h89.1
	c1.42,0,2.57,1.15,2.57,2.57v149.31C314.49,239.69,313.34,240.84,311.92,240.84z"/>
<line class="st0" x1="256.8" y1="234.02" x2="279.3" y2="234.02"/>
<g>
	<rect x="256.8" y="215.14" class="st0" width="10.57" height="25.59"/>
	<rect x="268.73" y="215.14" class="st0" width="10.57" height="25.59"/>
	<line class="st0" x1="264.39" y1="224.28" x2="264.39" y2="227.94"/>
	<line class="st0" x1="271.63" y1="224.28" x2="271.63" y2="227.94"/>
</g>
<path class="st0" d="M256.8,211.96l22.5,0.06c0,0,0-7.79-11.11-7.79C256.8,204.23,256.8,211.96,256.8,211.96z"/>
<path class="st0" d="M317.71,80.93H217.02c-4.76,0-8.62-3.86-8.62-8.62v-5.05c0-4.76,3.86-8.62,8.62-8.62h100.69
	c4.76,0,8.62,3.86,8.62,8.62v5.05C326.34,77.06,322.47,80.93,317.71,80.93z"/>
<g>
	<line class="st0" x1="243.25" y1="86.39" x2="243.25" y2="80.93"/>
	<line class="st0" x1="246.81" y1="86.39" x2="246.81" y2="80.93"/>
</g>
<g>
	<line class="st0" x1="288.92" y1="85.72" x2="288.92" y2="80.26"/>
	<line class="st0" x1="292.49" y1="85.72" x2="292.49" y2="80.26"/>
</g>
<rect x="218.5" y="61.87" class="st1" width="99.73" height="17.72"/>
<text transform="matrix(1 0 0 1 218.4997 76.3703)"><tspan x="0" y="0" class="st2 st3">HOTE</tspan><tspan x="62.2" y="0" class="st2 st3">-</tspan></text>
<rect x="228.95" y="204.23" class="st0" width="20.25" height="29.79"/>
<rect x="286.33" y="204.23" class="st0" width="20.25" height="29.79"/>
<g>
	<rect x="228.85" y="92.72" class="st0" width="14.55" height="29.79"/>
	<rect x="250.05" y="92.72" class="st0" width="14.55" height="29.79"/>
	<rect x="291.92" y="92.72" class="st0" width="14.55" height="29.79"/>
	<rect x="270.83" y="92.72" class="st0" width="14.55" height="29.79"/>
</g>
<g>
	<line class="st0" x1="228.57" y1="101.08" x2="243.4" y2="101.08"/>
	<line class="st0" x1="250.39" y1="101.08" x2="264.32" y2="101.08"/>
	<line class="st0" x1="270.83" y1="101.08" x2="285.66" y2="101.08"/>
	<line class="st0" x1="292.65" y1="101.08" x2="306.58" y2="101.08"/>
</g>
<g>
	<rect x="228.95" y="129.67" class="st0" width="14.55" height="29.79"/>
	<rect x="250.15" y="129.67" class="st0" width="14.55" height="29.79"/>
	<rect x="292.02" y="129.67" class="st0" width="14.55" height="29.79"/>
	<rect x="270.93" y="129.67" class="st0" width="14.55" height="29.79"/>
</g>
<g>
	<line class="st0" x1="228.33" y1="138.21" x2="243.16" y2="138.21"/>
	<line class="st0" x1="250.15" y1="138.21" x2="264.08" y2="138.21"/>
	<line class="st0" x1="270.59" y1="138.21" x2="285.42" y2="138.21"/>
	<line class="st0" x1="292.41" y1="138.21" x2="306.34" y2="138.21"/>
</g>
<g>
	<g>
		<rect x="228.95" y="166.61" class="st0" width="14.55" height="29.79"/>
		<rect x="250.15" y="166.61" class="st0" width="14.55" height="29.79"/>
		<rect x="292.02" y="166.61" class="st0" width="14.55" height="29.79"/>
		<rect x="270.93" y="166.61" class="st0" width="14.55" height="29.79"/>
	</g>
	<g>
		<line class="st0" x1="228.36" y1="174.97" x2="243.2" y2="174.97"/>
		<line class="st0" x1="250.18" y1="174.97" x2="264.11" y2="174.97"/>
		<line class="st0" x1="270.62" y1="174.97" x2="285.46" y2="174.97"/>
		<line class="st0" x1="292.44" y1="174.97" x2="306.37" y2="174.97"/>
	</g>
</g>
</svg>
